# xmcd
#
# Track frame offsets:
#	180
#	15159
#	32861
#	45147
#	63388
#	81627
#	93555
#	111327
#	121979
#	134956
#
# Disc length: 2123 seconds
#
# Revision: 1
# Processed by: cddbd v1.5.2PL0 Copyright (c) Steve Scherf et al.
# Submitted via: audiograbber 1.83.01
#
DISCID=8608490a
DTITLE=The Mt. Gilead Quartet - We Shall See Jesus
DYEAR=1996
DGENRE=Southern Gospel
TTITLE0=Canaanland
TTITLE1=Ten Thousand Years
TTITLE2=Oh Come Along
TTITLE3=Come Home
TTITLE4=Oh What A Savior
TTITLE5=Can He, Could He, Would He
TTITLE6=I Thirst
TTITLE7=Comfort To Know
TTITLE8=Glory To God
TTITLE9=We Shall See Jesus
EXTD=
EXTT0=
EXTT1=
EXTT2=
EXTT3=
EXTT4=
EXTT5=
EXTT6=
EXTT7=
EXTT8=
EXTT9=
PLAYORDER=
